<svg xmlns="http://www.w3.org/2000/svg" width="1071" height="331" viewBox="0 0 1071 331" fill="none"><path d="M54.0225 289.183C56.1845 289.183 57.9373 287.43 57.9373 285.268L57.9373 250.035C57.9373 247.873 56.1845 246.12 54.0225 246.12C51.8604 246.12 50.1077 247.873 50.1077 250.035L50.1077 281.354L18.7893 281.354C16.6272 281.354 14.8745 283.106 14.8745 285.268C14.8745 287.43 16.6272 289.183 18.7893 289.183L54.0225 289.183ZM8.30461 234.014L5.53643 231.246L6.84388e-05 236.782L2.76825 239.55L5.53643 236.782L8.30461 234.014ZM54.0225 285.268L56.7906 282.5L8.30461 234.014L5.53643 236.782L2.76825 239.55L51.2543 288.036L54.0225 285.268Z" fill="white"></path><path d="M142.972 36.7014L222.098 36.838L222.074 50.9798L159.109 50.8711L159.044 88.4142L217.127 88.5145L217.103 102.488L159.02 102.388L158.955 140.436L221.919 140.545L221.895 154.686L142.768 154.55L142.972 36.7014ZM233.857 36.8583L250.187 36.8865L286.908 123.148L287.245 123.148L324.432 37.0147L340.762 37.0429L340.559 154.891L325.07 154.864L325.219 68.8352L324.882 68.8346L292.769 141.509L281.321 141.489L249.627 68.7047L249.291 68.7041L249.142 154.733L233.653 154.707L233.857 36.8583ZM357.624 37.072L427.154 37.192L443.457 53.5506L443.389 92.6089L426.862 109.079L373.662 108.987L373.582 154.948L357.42 154.92L357.624 37.072ZM419.815 95.2619L427.404 87.8674L427.454 58.4053L419.891 50.9846L373.762 50.905L373.686 95.1823L419.815 95.2619ZM541.645 118.2L541.581 155.238L525.419 155.21L525.476 122.213L511.528 107.205L471.291 107.136L471.208 155.117L455.046 155.089L455.25 37.2405L524.78 37.3606L541.083 53.7192L541.019 90.4205L528.033 103.361L541.645 118.2ZM471.315 93.3306L517.444 93.4102L525.033 86.0157L525.08 58.5739L517.517 51.1532L471.388 51.0735L471.315 93.3306ZM557.808 37.4176L636.935 37.5542L636.91 51.696L573.946 51.5873L573.881 89.1304L631.963 89.2307L631.939 103.204L573.857 103.104L573.791 141.152L636.756 141.261L636.731 155.403L557.605 155.266L557.808 37.4176ZM645.993 139.088L646.015 126.293L662.009 126.321L661.995 133.897L669.222 141.317L707.775 141.383L715.196 133.82L715.238 109.577L707.843 102.325L662.724 102.247L646.422 85.7202L646.477 53.9011L662.835 37.5989L713.678 37.6867L729.98 54.0453L729.958 67.0086L714.133 66.9813L714.146 59.237L706.751 51.8166L669.882 51.7529L662.461 59.1477L662.424 80.6971L669.819 88.1175L714.938 88.1954L731.24 104.554L731.181 138.898L714.485 155.537L662.295 155.447L645.993 139.088ZM773.707 37.7903L789.869 37.8182L832.091 155.74L815.424 155.711L805.038 125.726L758.404 125.645L747.914 155.594L731.247 155.566L773.707 37.7903ZM800.853 112.082L781.923 56.997L781.587 56.9964L762.804 112.016L800.853 112.082ZM787.744 1.11314L805.085 1.14308L789.381 28.2212L775.071 28.1964L787.744 1.11314ZM925.408 118.863L925.344 155.901L909.182 155.873L909.239 122.875L895.291 107.868L855.054 107.798L854.972 155.779L838.81 155.751L839.013 37.9031L908.544 38.0231L924.846 54.3817L924.782 91.0831L911.797 104.024L925.408 118.863ZM855.078 93.9931L901.208 94.0727L908.796 86.6782L908.844 59.2364L901.28 51.8157L855.151 51.7361L855.078 93.9931ZM942.413 38.0816L958.575 38.1095L958.372 155.958L942.21 155.93L942.413 38.0816ZM974.374 137.13L974.513 56.9928L993.401 38.1696L1048.96 38.2655L1067.78 57.1538L1067.64 137.291L1048.75 156.114L993.197 156.018L974.374 137.13ZM1041.03 141.959L1051.49 131.539L1051.61 62.85L1041.19 52.394L1001.12 52.3248L990.665 62.7448L990.546 131.433L1000.97 141.889L1041.03 141.959Z" fill="#FE3300"></path><path d="M143.178 214.555L150.526 214.567L198.54 291.305L198.794 291.305L198.926 214.651L205.895 214.663L205.742 303.354L198.393 303.341L150.379 226.477L150.126 226.477L149.993 303.257L143.025 303.245L143.178 214.555ZM244.29 214.729L253.032 214.744L283.668 303.488L276.065 303.475L267.494 278.12L229.61 278.055L220.951 303.38L213.349 303.367L244.29 214.729ZM265.351 271.655L248.837 222.719L248.457 222.719L231.902 271.597L265.351 271.655ZM243.684 198.637L241.15 198.633L238.612 201.162L238.607 204.203L232.652 204.193L232.66 199.505L238.752 193.434L245.847 193.446L253.945 199.795L256.606 199.8L259.144 197.27L259.15 194.103L264.978 194.113L264.97 198.927L258.877 204.998L251.909 204.986L243.684 198.637ZM283.775 290.185L283.882 228.101L297.208 214.821L336.232 214.888L349.513 228.215L349.406 290.298L336.079 303.579L297.055 303.511L283.775 290.185ZM332.796 296.985L342.061 287.751L342.16 230.609L332.927 221.471L300.491 221.415L291.226 230.521L291.128 287.663L300.361 296.929L332.796 296.985ZM387.077 214.976L442.065 215.071L442.054 221.659L394.414 221.577L394.355 255.786L438.32 255.862L438.309 262.451L394.344 262.375L394.284 297.091L441.924 297.173L441.912 303.761L386.924 303.667L387.077 214.976ZM421.588 187.161L429.823 187.175L418.767 206.542L412.052 206.53L421.588 187.161ZM478.544 215.134L532.519 215.227L545.42 228.299L545.368 258.454L532.295 271.609L493.144 271.541L493.088 303.85L478.391 303.824L478.544 215.134ZM525.855 259.181L530.931 254.121L530.968 232.709L525.909 227.632L493.22 227.576L493.166 259.124L525.855 259.181ZM620.307 275.435L620.258 304.069L605.56 304.044L605.604 278.957L596.498 268.932L567.611 268.882L567.55 303.978L552.853 303.953L553.006 215.262L606.98 215.355L619.881 228.428L619.834 255.669L610.569 264.902L620.307 275.435ZM567.632 256.719L600.32 256.775L605.397 251.716L605.43 232.838L600.371 227.761L567.682 227.704L567.632 256.719ZM629.784 289.769L629.888 229.712L644.23 215.42L688.068 215.495L702.361 229.837L702.257 289.894L687.915 304.186L644.076 304.11L629.784 289.769ZM680.335 291.503L687.569 284.42L687.654 235.26L680.444 228.152L651.81 228.103L644.576 235.186L644.491 284.346L651.7 291.453L680.335 291.503ZM712.57 215.538L767.431 215.632L782.23 230.482L782.128 289.525L767.278 304.323L712.417 304.228L712.57 215.538ZM760.205 291.641L767.439 284.558L767.524 235.398L760.314 228.29L727.245 228.233L727.136 291.584L760.205 291.641ZM792.224 289.542L792.352 215.675L807.049 215.701L806.93 284.626L814.14 291.734L840.24 291.779L847.475 284.696L847.594 215.771L862.291 215.796L862.163 289.663L847.314 304.461L807.023 304.392L792.224 289.542ZM893.993 228.394L867.386 228.348L867.407 215.805L935.319 215.922L935.297 228.466L908.69 228.42L908.559 304.567L893.861 304.542L893.993 228.394ZM937.158 290.299L937.261 230.243L951.603 215.95L995.442 216.026L1009.73 230.368L1009.63 290.424L995.289 304.717L951.45 304.641L937.158 290.299ZM987.708 292.034L994.943 284.951L995.027 235.791L987.818 228.683L959.183 228.634L951.949 235.716L951.864 284.876L959.074 291.984L987.708 292.034ZM1010.92 306.011L1069.45 306.112L1069.43 318.275L1010.9 318.174L1010.92 306.011Z" fill="#D9D9D9"></path></svg>