<svg xmlns="http://www.w3.org/2000/svg" width="248" height="226" viewBox="0 0 248 226" fill="none"><path d="M9.09232 0H190.03H199.088V10.3046V37.9857H180.937V20.5756H18.151V205.217H180.937V187.807H199.088V215.522V225.793H190.03H9.09232H0V215.522V10.3046V0H9.09232Z" fill="#FE3300"></path><path d="M119.214 179.926V44.8883H187.912C205.793 44.8883 219.095 48.1548 227.851 54.7215C236.606 61.2882 240.984 69.7743 240.984 80.18C240.984 87.1171 239.165 93.246 235.596 98.4993C231.993 103.786 226.84 107.895 220.173 110.858C213.471 113.822 205.625 115.303 196.634 115.303L200.304 106.043C209.7 106.043 217.95 107.491 225.089 110.387C232.228 113.283 237.751 117.492 241.691 123.015C245.597 128.538 247.584 135.172 247.584 142.883C247.584 154.468 242.87 163.526 233.407 170.093C223.944 176.66 210.104 179.926 191.818 179.926H119.281H119.214ZM156.863 152.346H188.888C195.59 152.346 200.574 151.235 203.941 148.979C207.275 146.722 208.959 143.287 208.959 138.64C208.959 133.993 207.275 130.558 203.941 128.336C200.607 126.079 195.59 124.968 188.888 124.968H154.169V98.533H183.096C189.528 98.533 194.344 97.4554 197.576 95.2665C200.809 93.0776 202.392 89.8785 202.392 85.6354C202.392 81.1229 200.776 77.8227 197.576 75.7012C194.377 73.5796 189.528 72.502 183.096 72.502H156.863V152.38V152.346Z" fill="#D9D9D9"></path></svg>